<svg width="44" height="44" viewBox="0 0 44 44" fill="none" xmlns="http://www.w3.org/2000/svg">
<circle cx="22" cy="22" r="22" fill="white"/>
<path fill-rule="evenodd" clip-rule="evenodd" d="M14.526 14.4762C14.526 10.507 19.6205 8.15277 22.6197 11.8442C20.2796 12.767 18.2079 15.6862 19.0931 18.9492C19.079 18.9492 19.0649 18.9515 19.0507 18.9539C19.0366 18.9562 19.0225 18.9586 19.0084 18.9586C16.5318 18.9586 14.526 16.9528 14.526 14.4762ZM29.5176 17.4896C29.5176 19.9651 27.5107 21.972 25.0352 21.972C22.5596 21.972 20.5527 19.9651 20.5527 17.4896C20.5527 15.014 22.5596 13.0071 25.0352 13.0071C27.5107 13.0071 29.5176 15.014 29.5176 17.4896ZM34 30.1787C34 35.405 16.0797 35.405 16.0797 30.1787C16.0797 20.9407 34 21.0349 34 30.1787ZM19.6123 20.3052C11.3349 19.1705 6.01434 28.7756 13.7832 30.4142C13.8586 26.0024 17.211 23.3186 21.312 22.3298C20.6057 21.7883 20.0266 21.1009 19.6123 20.3052Z" fill="#5603AD"/>
</svg>
